<?xml version="1.0" encoding="iso-8859-1"?>
<!-- Generator: Adobe Illustrator 19.0.0, SVG Export Plug-In . SVG Version: 6.00 Build 0)  -->
<svg version="1.1" id="Capa_1" xmlns="http://www.w3.org/2000/svg" xmlns:xlink="http://www.w3.org/1999/xlink" x="0px" y="0px"
	 viewBox="0 0 480 480" style="enable-background:new 0 0 480 480;" xml:space="preserve">
<g>
	<g>
		<path d="M296,24H88c-13.255,0-24,10.745-24,24v384c0,13.255,10.745,24,24,24h208c13.255,0,24-10.745,24-24V48
			C320,34.745,309.255,24,296,24z M304,432c0,4.418-3.582,8-8,8H88c-4.418,0-8-3.582-8-8V320h224V432z M136.84,224h30.36l-6.4,64
			h-17.52L136.84,224z M224.84,224h30.36l-6.4,64h-17.52L224.84,224z M304,304h-48c4.109,0,7.549-3.112,7.96-7.2l8-80
			c0.225-2.251-0.513-4.492-2.032-6.168c-1.516-1.675-3.669-2.631-5.928-2.632h-48c-4.418-0.022-8.018,3.542-8.04,7.96
			c-0.001,0.281,0.012,0.561,0.04,0.84l8,80c0.412,4.103,3.876,7.221,8,7.2h-56c4.124,0.021,7.588-3.097,8-7.2l7.28-72.8H184
			c4.418,0,8-3.582,8-8s-3.582-8-8-8h-64c-4.418,0-8,3.582-8,8s3.582,8,8,8h0.8l7.28,72.8c0.412,4.103,3.876,7.221,8,7.2H80V184h224
			V304z M304,168H80V48c0-4.418,3.582-8,8-8h208c4.418,0,8,3.582,8,8V168z"/>
	</g>
</g>
<g>
	<g>
		<path d="M434.528,200.416L416,194.24V24c0-13.255-10.745-24-24-24h-16c-13.255,0-24,10.745-24,24v368h-8V40
			c-0.026-22.08-17.92-39.974-40-40H80C57.92,0.026,40.026,17.92,40,40v400c0.026,22.08,17.92,39.974,40,40h224
			c22.08-0.026,39.974-17.92,40-40v-8h8v24c0,13.255,10.745,24,24,24h16c13.255,0,24-10.745,24-24V285.76l18.528-6.176
			c3.266-1.088,5.469-4.142,5.472-7.584v-64C439.997,204.558,437.794,201.504,434.528,200.416z M400,456c0,4.418-3.582,8-8,8h-16
			c-4.418,0-8-3.582-8-8v-32c0-4.418-3.582-8-8-8h-24c-4.418,0-8,3.582-8,8v16c0,13.255-10.745,24-24,24H80
			c-13.255,0-24-10.745-24-24V40c0-13.255,10.745-24,24-24h224c13.255,0,24,10.745,24,24v360c0,4.418,3.582,8,8,8h24
			c4.418,0,8-3.582,8-8V24c0-4.418,3.582-8,8-8h16c4.418,0,8,3.582,8,8V456z M424,266.232l-8,2.664v-57.792l8,2.664V266.232z"/>
	</g>
</g>
<g>
	<g>
		<path d="M128,56h-24c-4.418,0-8,3.582-8,8s3.582,8,8,8h24c4.418,0,8-3.582,8-8S132.418,56,128,56z"/>
	</g>
</g>
<g>
	<g>
		<path d="M264,56H160c-4.418,0-8,3.582-8,8s3.582,8,8,8h104c4.418,0,8,3.582,8,8v24c0,4.418,3.582,8,8,8s8-3.582,8-8V80
			C288,66.745,277.255,56,264,56z"/>
	</g>
</g>
<g>
</g>
<g>
</g>
<g>
</g>
<g>
</g>
<g>
</g>
<g>
</g>
<g>
</g>
<g>
</g>
<g>
</g>
<g>
</g>
<g>
</g>
<g>
</g>
<g>
</g>
<g>
</g>
<g>
</g>
</svg>
